<svg width="706" height="1000" viewBox="0 0 706 1000" fill="none" xmlns="http://www.w3.org/2000/svg">
<g clip-path="url(#clip0_17_11)">
<rect width="706" height="1000" fill="#E4003A"/>
<rect x="353" y="-60.4333" width="353" height="353.478" fill="#FAB526"/>
<rect x="353" y="293.044" width="353" height="353.478" fill="#F3A0B2"/>
<rect y="293.044" width="353" height="353.478" fill="#00A1DF"/>
<rect y="646.522" width="353" height="353.478" fill="#3C3C3B"/>
<rect x="353" y="646.522" width="353" height="353.478" fill="#E4003A"/>
<rect y="-60.4333" width="353" height="353.478" fill="#E4003A"/>
<path d="M353.239 646.761L353.239 999.761C158.003 999.761 -0.23896 841.705 -0.238968 646.761L353.239 646.761Z" fill="#FAB526"/>
<path d="M706.239 -60.1944L706.239 292.806C511.003 292.806 352.761 134.75 352.761 -60.1944L706.239 -60.1944Z" fill="#00A1DF"/>
<path d="M353 293.044H0C0 97.8091 158.056 -60.4333 353 -60.4333V293.044Z" fill="#F3A0B2"/>
<path d="M353 646.522L706 646.522C706 841.758 547.944 1000 353 1000L353 646.522Z" fill="#FAB526"/>
<path d="M353 646.522L353 293.045C547.972 293.045 706 451.314 706 646.522L353 646.522Z" fill="#00A1DF"/>
<path d="M353.008 646.514L-0.0084237 646.514C-0.00838952 451.288 158.055 293.053 353.008 293.053L353.008 646.514Z" fill="#3C3C3B"/>
</g>
<defs>
<clipPath id="clip0_17_11">
<rect width="706" height="1000" fill="white"/>
</clipPath>
</defs>
</svg>
